<?xml version="1.0" encoding="UTF-8"?>
<svg width="360px" height="117px" viewBox="0 0 360 117" version="1.1" xmlns="http://www.w3.org/2000/svg" xmlns:xlink="http://www.w3.org/1999/xlink">
    <!-- Generator: Sketch 42 (36781) - http://www.bohemiancoding.com/sketch -->
    <title>MageUC-Logo</title>
    <desc>Created with Sketch.</desc>
    <defs></defs>
    <g id="Page-1" stroke="none" stroke-width="1" fill="none" fill-rule="evenodd">
        <g id="MageUC-Logo">
            <g>
                <path d="M185.222439,10.3567729 L195.357287,10.3567729 L205.565627,36.1038525 C206.741131,39.1846041 208.209485,43.7323271 208.209485,43.7323271 L208.356469,43.7323271 C208.356469,43.7323271 209.752077,39.1846041 210.927207,36.1038525 L221.135175,10.3567729 L231.270396,10.3567729 L235.456472,62.4374226 L226.055801,62.4374226 L223.852897,33.3163462 C223.632421,29.8681997 223.779405,25.2470723 223.779405,25.2470723 L223.632421,25.2470723 C223.632421,25.2470723 222.089828,30.308999 220.841579,33.3163462 L212.395934,53.4880404 L204.096901,53.4880404 L195.724748,33.3163462 C194.476125,30.308999 192.860414,25.1736678 192.860414,25.1736678 L192.71343,25.1736678 C192.71343,25.1736678 192.860414,29.8681997 192.639937,33.3163462 L190.437034,62.4374226 L180.96287,62.4374226 L185.222439,10.3567729 Z" id="Fill-1" fill="#808080"></path>
                <path d="M256.205212,56.0558178 C261.125838,56.0558178 264.65123,50.7744229 264.65123,46.2267 L264.65123,45.3462191 L263.035145,45.3462191 C258.261877,45.3462191 250.550409,46.0064866 250.550409,51.2144771 C250.550409,53.7083656 252.386597,56.0558178 256.205212,56.0558178 M263.329114,38.9645025 L264.577737,38.9645025 L264.577737,38.4510439 C264.577737,33.5362987 261.492926,31.849114 257.380342,31.849114 C252.019136,31.849114 247.098136,35.4433242 247.098136,35.4433242 L243.573118,28.7679898 C243.573118,28.7679898 249.375278,24.1468624 258.261877,24.1468624 C268.102756,24.1468624 273.831051,29.5750662 273.831051,39.037907 L273.831051,62.4375344 L265.238795,62.4375344 L265.238795,59.3564102 C265.238795,57.8898115 265.385033,56.7160854 265.385033,56.7160854 L265.238795,56.7160854 C265.312287,56.7160854 262.374088,63.3180153 253.854951,63.3180153 C247.171629,63.3180153 241.150111,59.136942 241.150111,51.6541586 C241.150111,39.771579 257.233358,38.9645025 263.329114,38.9645025" id="Fill-3" fill="#808080"></path>
                <path d="M307.262844,42.8519207 C307.262844,34.3433379 303.076768,32.0692901 298.00953,32.0692901 C292.353981,32.0692901 289.196051,36.1769589 289.196051,42.485271 C289.196051,49.0137965 292.574458,53.8555099 298.59635,53.8555099 C303.076768,53.8555099 307.262844,51.2878443 307.262844,42.8519207 M296.466938,69.9195354 C302.194861,69.9195354 307.042367,67.4986787 307.042367,60.8237169 L307.042367,58.6234462 C307.042367,57.7429653 307.189352,56.6426436 307.189352,56.6426436 L307.042367,56.6426436 C304.839091,59.943236 301.607668,61.7038252 296.613923,61.7038252 C285.891136,61.7038252 279.79538,53.0484334 279.79538,42.7785162 C279.79538,32.5093443 285.597913,24.1468252 296.393446,24.1468252 C304.545122,24.1468252 307.482948,28.9147615 307.482948,28.9147615 L307.703425,28.9147615 C307.703425,28.9147615 307.629933,28.4750799 307.629933,27.8882169 L307.629933,25.0273061 L316.369174,25.0273061 L316.369174,60.1634494 C316.369174,73.0002869 306.38131,77.8420003 296.613923,77.8420003 C291.913401,77.8420003 286.919282,76.5214653 283.320771,74.6140672 L286.111986,67.4986787 C286.111986,67.4986787 290.812136,69.9195354 296.466938,69.9195354" id="Fill-5" fill="#808080"></path>
                <path d="M348.750251,39.1112742 C348.603266,34.0493475 345.445709,31.3356182 341.332752,31.3356182 C336.55911,31.3356182 333.253823,34.2699334 332.373034,39.1112742 L348.750251,39.1112742 Z M341.552856,24.1468252 C352.348762,24.1468252 358.150549,31.9958857 358.150549,41.898408 C358.150549,42.9987296 357.930072,45.4929908 357.930072,45.4929908 L332.079065,45.4929908 C332.667003,52.0215162 337.734241,55.3955131 343.315552,55.3955131 C349.337816,55.3955131 354.111458,51.2878443 354.111458,51.2878443 L357.710342,57.9631787 C357.710342,57.9631787 351.982046,63.317978 342.654494,63.317978 C330.24325,63.317978 322.532155,54.3685959 322.532155,43.7324016 C322.532155,32.2157264 330.389862,24.1468252 341.552856,24.1468252 L341.552856,24.1468252 Z" id="Fill-7" fill="#808080"></path>
                <polygon id="Fill-9" fill="#FF3300" points="30.5638022 66.6872761 30.4033022 66.5942761 30.2423022 66.6872761"></polygon>
                <polygon id="Fill-11" fill="#FF3300" points="48.3735596 10.6484532 38.9079762 5.19006783 30.2332743 0.187758917 21.5589454 5.19006783 12.1101495 10.6387653 3.43544758 15.6410742 3.43544758 25.6453194 3.43544758 54.1236411 12.1101495 59.12595 12.1101495 20.6433831 25.9046901 12.688501 25.9046901 64.0239277 30.3623521 66.5945742 34.579019 64.1629118 34.579019 12.6981889 48.3735596 20.653071 48.3735596 59.2649341 57.0482616 54.2626252 57.0482616 25.6550073 57.0482616 15.6507621"></polygon>
                <polygon id="Fill-13" fill="#FF3300" points="102.387224 10.6419325 102.387224 49.2537955 89.29515 56.803649 75.9620813 49.1148115 75.9620813 10.6322446 67.2873794 15.6345535 67.2873794 44.1128752 67.2873794 54.1171204 75.9620813 59.1194293 84.2555187 63.9018975 85.539582 64.642649 89.29515 66.8082669 93.050345 64.642649 94.0937864 64.0408815 102.387224 59.2584134 111.061553 54.2561045 111.061553 44.2514866 111.061553 15.6442414"></polygon>
                <polygon id="Fill-15" fill="#FF3300" points="160.619196 53.7734236 158.119339 53.7734236 149.947891 53.7734236 137.431818 53.7734236 127.539457 36.6601242 137.570596 19.3061178 162.886639 19.3061178 157.878344 10.6417834 142.57889 10.6417834 136.711445 10.6417834 132.562674 10.6417834 127.55438 19.3061178 122.024551 28.872172 118.02948 35.783742 117.522868 36.6601242 118.02948 37.5365064 122.024551 44.4477038 127.415229 53.7734236 132.423524 62.4373854 136.711445 62.4373854 142.43974 62.4373854 144.93997 62.4373854 153.111044 62.4373854 165.627491 62.4373854"></polygon>
                <path d="M0.187983585,90.2575261 L6.61389597,90.2575261 L6.61389597,106.835383 C6.61389597,109.586373 8.4135245,111.052972 11.1670606,111.052972 C13.9213428,111.052972 15.7205983,109.586373 15.7205983,106.835383 L15.7205983,90.2575261 L22.1468837,90.2575261 L22.1468837,106.835383 C22.1468837,112.740157 17.8138229,116.92123 11.2039933,116.92123 C4.52104439,116.92123 0.187983585,112.740157 0.187983585,106.835383 L0.187983585,90.2575261 Z" id="Fill-17" fill="#001A18"></path>
                <path d="M33.8618163,90.2575261 L40.361221,90.2575261 L47.6321082,102.507501 C48.6598811,104.231574 49.8350117,106.982192 49.8350117,106.982192 L49.908504,106.982192 C49.908504,106.982192 49.6149079,104.158169 49.6149079,102.507501 L49.6149079,90.2575261 L56.0408203,90.2575261 L56.0408203,116.481548 L49.5779752,116.481548 L42.2705284,104.26809 C41.2423824,102.544389 40.0672518,99.7937713 40.0672518,99.7937713 L39.9941326,99.7937713 C39.9941326,99.7937713 40.2877287,102.617794 40.2877287,104.26809 L40.2877287,116.481548 L33.8618163,116.481548 L33.8618163,90.2575261 Z" id="Fill-19" fill="#001A18"></path>
                <path d="M80.0201616,90.2575261 C86.1890375,90.2575261 89.3104081,93.5953796 89.3104081,93.5953796 L87.9517333,95.4655166 C87.9517333,95.4655166 84.9407877,92.6049783 80.0936539,92.6049783 C74.0344568,92.6049783 69.7017691,97.2995102 69.7017691,103.387982 C69.7017691,109.549485 74.0344568,114.57415 80.1671461,114.57415 C85.3813684,114.57415 88.5392986,111.126749 88.5392986,111.126749 L90.0080253,112.924227 C90.0080253,112.924227 86.4830066,116.92123 80.1305865,116.92123 C72.4926109,116.92123 67.0579118,110.943424 67.0579118,103.424497 C67.0579118,95.9424592 72.6392224,90.2575261 80.0201616,90.2575261" id="Fill-21" fill="#001A18"></path>
                <path d="M112.592431,114.574113 C118.394591,114.574113 123.09474,109.733145 123.09474,103.42446 C123.09474,97.262957 118.394591,92.6049411 112.592431,92.6049411 C106.754084,92.6049411 102.090494,97.262957 102.090494,103.42446 C102.090494,109.733145 106.754084,114.574113 112.592431,114.574113 M112.592431,90.2574889 C119.900251,90.2574889 125.738598,96.0158264 125.738598,103.42446 C125.738598,110.979903 119.900251,116.921565 112.592431,116.921565 C105.284984,116.921565 99.4466367,110.979903 99.4466367,103.42446 C99.4466367,96.0158264 105.284984,90.2574889 112.592431,90.2574889" id="Fill-23" fill="#001A18"></path>
                <path d="M137.380113,90.6975057 L139.840426,90.6975057 L153.023152,109.256165 C153.904314,110.539811 155.152936,112.740082 155.152936,112.740082 L155.226056,112.740082 C155.226056,112.740082 155.005952,110.613216 155.005952,109.256165 L155.005952,90.6975057 L157.539757,90.6975057 L157.539757,116.481474 L155.079444,116.481474 L141.896718,97.9231873 C141.015556,96.6391682 139.766933,94.4388975 139.766933,94.4388975 L139.693441,94.4388975 C139.693441,94.4388975 139.913918,96.5657637 139.913918,97.9231873 L139.913918,116.481474 L137.380113,116.481474 L137.380113,90.6975057 Z" id="Fill-25" fill="#001A18"></path>
                <polygon id="Fill-27" fill="#001A18" points="170.943632 90.6975057 184.53038 90.6975057 184.53038 92.9719261 173.477438 92.9719261 173.477438 102.654235 182.951228 102.654235 182.951228 104.928283 173.477438 104.928283 173.477438 116.481474 170.943632 116.481474"></polygon>
                <polygon id="Fill-29" fill="#001A18" points="195.731016 90.6975057 210.272044 90.6975057 210.272044 92.9719261 198.264448 92.9719261 198.264448 102.361362 208.06914 102.361362 208.06914 104.635038 198.264448 104.635038 198.264448 114.207426 210.933102 114.207426 210.933102 116.481474 195.731016 116.481474"></polygon>
                <path d="M231.27741,103.350981 C234.398407,103.350981 236.38158,101.333663 236.38158,98.1064748 C236.38158,95.9788634 235.536978,94.4023443 234.031692,93.5952678 C233.259836,93.1917296 232.342488,92.9718889 230.359316,92.9718889 L225.145093,92.9718889 L225.145093,103.350981 L231.27741,103.350981 Z M222.611661,90.6974685 L230.249264,90.6974685 C232.893121,90.6974685 234.067878,90.954943 235.096024,91.3946245 C237.519778,92.4580576 238.988878,94.9158029 238.988878,98.0330704 C238.988878,101.517733 237.005705,104.194574 234.105184,105.00165 L234.105184,105.075054 C234.105184,105.075054 234.362221,105.405188 234.765496,106.101972 L240.383739,116.481437 L237.483218,116.481437 L231.644498,105.625029 L225.145093,105.625029 L225.145093,116.481437 L222.611661,116.481437 L222.611661,90.6974685 Z" id="Fill-31" fill="#001A18"></path>
                <polygon id="Fill-33" fill="#001A18" points="251.585083 90.6975057 266.126112 90.6975057 266.126112 92.9719261 254.118516 92.9719261 254.118516 102.361362 263.923208 102.361362 263.923208 104.635038 254.118516 104.635038 254.118516 114.207426 266.787169 114.207426 266.787169 116.481474 251.585083 116.481474"></polygon>
                <path d="M278.46558,90.6975057 L280.92552,90.6975057 L294.108246,109.256165 C294.989408,110.539811 296.23803,112.740082 296.23803,112.740082 L296.311523,112.740082 C296.311523,112.740082 296.091419,110.613216 296.091419,109.256165 L296.091419,90.6975057 L298.625224,90.6975057 L298.625224,116.481474 L296.164538,116.481474 L282.981812,97.9231873 C282.10065,96.6391682 280.852027,94.4388975 280.852027,94.4388975 L280.778535,94.4388975 C280.778535,94.4388975 280.999012,96.5657637 280.999012,97.9231873 L280.999012,116.481474 L278.46558,116.481474 L278.46558,90.6975057 Z" id="Fill-35" fill="#001A18"></path>
                <path d="M323.264765,90.2575261 C329.434014,90.2575261 332.555385,93.5953796 332.555385,93.5953796 L331.19671,95.4655166 C331.19671,95.4655166 328.185391,92.6049783 323.338257,92.6049783 C317.279433,92.6049783 312.946746,97.2995102 312.946746,103.387982 C312.946746,109.549485 317.279433,114.57415 323.41175,114.57415 C328.625972,114.57415 331.784275,111.126749 331.784275,111.126749 L333.253375,112.924227 C333.253375,112.924227 329.728356,116.92123 323.37519,116.92123 C315.737588,116.92123 310.302515,110.943424 310.302515,103.424497 C310.302515,95.9424592 315.884572,90.2575261 323.264765,90.2575261" id="Fill-37" fill="#001A18"></path>
                <polygon id="Fill-39" fill="#001A18" points="344.674599 90.6975057 359.215628 90.6975057 359.215628 92.9719261 347.208405 92.9719261 347.208405 102.361362 357.012724 102.361362 357.012724 104.635038 347.208405 104.635038 347.208405 114.207426 359.876685 114.207426 359.876685 116.481474 344.674599 116.481474"></polygon>
            </g>
        </g>
    </g>
</svg>