<?xml version="1.0" encoding="UTF-8"?>
<svg width="360px" height="117px" viewBox="0 0 360 117" version="1.1" xmlns="http://www.w3.org/2000/svg" xmlns:xlink="http://www.w3.org/1999/xlink">
    <!-- Generator: Sketch 42 (36781) - http://www.bohemiancoding.com/sketch -->
    <title>MageUC-Logo</title>
    <desc>Created with Sketch.</desc>
    <defs></defs>
    <g id="Page-1" stroke="none" stroke-width="1" fill="none" fill-rule="evenodd">
        <g id="MageUC-Logo">
            <g>
                <path d="M185.222439,10.3691656 L195.357287,10.3691656 L205.565627,36.1470536 C206.741131,39.2314915 208.209485,43.7846561 208.209485,43.7846561 L208.356469,43.7846561 C208.356469,43.7846561 209.752077,39.2314915 210.927207,36.1470536 L221.135175,10.3691656 L231.270396,10.3691656 L235.456472,62.5121337 L226.055801,62.5121337 L223.852897,33.3562117 C223.632421,29.9039393 223.779405,25.2772823 223.779405,25.2772823 L223.632421,25.2772823 C223.632421,25.2772823 222.089828,30.3452661 220.841579,33.3562117 L212.395934,53.552043 L204.096901,53.552043 L195.724748,33.3562117 C194.476125,30.3452661 192.860414,25.20379 192.860414,25.20379 L192.71343,25.20379 C192.71343,25.20379 192.860414,29.9039393 192.639937,33.3562117 L190.437034,62.5121337 L180.96287,62.5121337 L185.222439,10.3691656 Z" id="Fill-1" fill="#808080"></path>
                <path d="M256.205212,56.1228929 C261.125838,56.1228929 264.65123,50.8351784 264.65123,46.2820138 L264.65123,45.4004793 L263.035145,45.4004793 C258.261877,45.4004793 250.550409,46.0615369 250.550409,51.2757591 C250.550409,53.7726317 252.386597,56.1228929 256.205212,56.1228929 M263.329114,39.0111265 L264.577737,39.0111265 L264.577737,38.4970535 C264.577737,33.5764275 261.492926,31.8872239 257.380342,31.8872239 C252.019136,31.8872239 247.098136,35.4857348 247.098136,35.4857348 L243.573118,28.8024129 C243.573118,28.8024129 249.375278,24.175756 258.261877,24.175756 C268.102756,24.175756 273.831051,29.6104551 273.831051,39.0846188 L273.831051,62.5122456 L265.238795,62.5122456 L265.238795,59.4274346 C265.238795,57.959081 265.385033,56.7839505 265.385033,56.7839505 L265.238795,56.7839505 C265.312287,56.7839505 262.374088,63.3937801 253.854951,63.3937801 C247.171629,63.3937801 241.150111,59.2077039 241.150111,51.7159667 C241.150111,39.8191687 257.233358,39.0111265 263.329114,39.0111265" id="Fill-3" fill="#808080"></path>
                <path d="M307.262844,42.9031963 C307.262844,34.3844323 303.076768,32.1076635 298.00953,32.1076635 C292.353981,32.1076635 289.196051,36.2202474 289.196051,42.5361079 C289.196051,49.0724452 292.574458,53.9199521 298.59635,53.9199521 C303.076768,53.9199521 307.262844,51.3492141 307.262844,42.9031963 M296.466938,70.0031994 C302.194861,70.0031994 307.042367,67.579446 307.042367,60.8964971 L307.042367,58.6935936 C307.042367,57.8120591 307.189352,56.7104209 307.189352,56.7104209 L307.042367,56.7104209 C304.839091,60.0149626 301.607668,61.7776585 296.613923,61.7776585 C285.891136,61.7776585 279.79538,53.1119099 279.79538,42.829704 C279.79538,32.5482442 285.597913,24.1757187 296.393446,24.1757187 C304.545122,24.1757187 307.482948,28.9493602 307.482948,28.9493602 L307.703425,28.9493602 C307.703425,28.9493602 307.629933,28.5091525 307.629933,27.9215872 L307.629933,25.0572531 L316.369174,25.0572531 L316.369174,60.2354395 C316.369174,73.0876373 306.38131,77.9351442 296.613923,77.9351442 C291.913401,77.9351442 286.919282,76.613029 283.320771,74.7033486 L286.111986,67.579446 C286.111986,67.579446 290.812136,70.0031994 296.466938,70.0031994" id="Fill-5" fill="#808080"></path>
                <path d="M348.750251,39.1580738 C348.603266,34.0900901 345.445709,31.3731136 341.332752,31.3731136 C336.55911,31.3731136 333.253823,34.31094 332.373034,39.1580738 L348.750251,39.1580738 Z M341.552856,24.1757187 C352.348762,24.1757187 358.150549,32.0341712 358.150549,41.9485426 C358.150549,43.0501809 357.930072,45.5474266 357.930072,45.5474266 L332.079065,45.5474266 C332.667003,52.0837639 337.734241,55.461798 343.315552,55.461798 C349.337816,55.461798 354.111458,51.3492141 354.111458,51.3492141 L357.710342,58.032536 C357.710342,58.032536 351.982046,63.3937428 342.654494,63.3937428 C330.24325,63.3937428 322.532155,54.433652 322.532155,43.7847307 C322.532155,32.254275 330.389862,24.1757187 341.552856,24.1757187 L341.552856,24.1757187 Z" id="Fill-7" fill="#808080"></path>
                <polygon id="Fill-9" fill="#FF3300" points="30.5638022 66.7669612 30.4033022 66.6739612 30.2423022 66.7669612"></polygon>
                <polygon id="Fill-11" fill="#FF3300" points="48.3735596 10.6611949 38.9079762 5.19627814 30.2332743 0.187983585 21.5589454 5.19627814 12.1101495 10.6514954 3.43544758 15.6597899 3.43544758 25.676006 3.43544758 54.1884041 12.1101495 59.1966987 12.1101495 20.6680845 25.9046901 12.7036837 25.9046901 64.1005372 30.3623521 66.6742597 34.579019 64.2396876 34.579019 12.7133832 48.3735596 20.677784 48.3735596 59.3358491 57.0482616 54.3275545 57.0482616 25.6857055 57.0482616 15.6694894"></polygon>
                <polygon id="Fill-13" fill="#FF3300" points="102.387224 10.6546664 102.387224 49.3127315 89.29515 56.8716189 75.9620813 49.1735811 75.9620813 10.6449669 67.2873794 15.6532614 67.2873794 44.1656596 67.2873794 54.1818756 75.9620813 59.1901702 84.2555187 63.9783609 85.539582 64.7199989 89.29515 66.888208 93.050345 64.7199989 94.0937864 64.1175113 102.387224 59.3293206 111.061553 54.321026 111.061553 44.3044369 111.061553 15.6629609"></polygon>
                <polygon id="Fill-15" fill="#FF3300" points="160.619196 53.8377676 158.119339 53.8377676 149.947891 53.8377676 137.431818 53.8377676 127.539457 36.7039908 137.570596 19.3292191 162.886639 19.3292191 157.878344 10.6545171 142.57889 10.6545171 136.711445 10.6545171 132.562674 10.6545171 127.55438 19.3292191 122.024551 28.9067197 118.02948 35.82656 117.522868 36.7039908 118.02948 37.5814217 122.024551 44.5008889 127.415229 53.8377676 132.423524 62.5120964 136.711445 62.5120964 142.43974 62.5120964 144.93997 62.5120964 153.111044 62.5120964 165.627491 62.5120964"></polygon>
                <path d="M0.187983585,90.3655261 L6.61389597,90.3655261 L6.61389597,106.963219 C6.61389597,109.717502 8.4135245,111.185855 11.1670606,111.185855 C13.9213428,111.185855 15.7205983,109.717502 15.7205983,106.963219 L15.7205983,90.3655261 L22.1468837,90.3655261 L22.1468837,106.963219 C22.1468837,112.875059 17.8138229,117.061135 11.2039933,117.061135 C4.52104439,117.061135 0.187983585,112.875059 0.187983585,106.963219 L0.187983585,90.3655261 Z" id="Fill-17" fill="#001A18"></path>
                <path d="M33.8618163,90.3655261 L40.361221,90.3655261 L47.6321082,102.630159 C48.6598811,104.356295 49.8350117,107.110204 49.8350117,107.110204 L49.908504,107.110204 C49.908504,107.110204 49.6149079,104.282803 49.6149079,102.630159 L49.6149079,90.3655261 L56.0408203,90.3655261 L56.0408203,116.620927 L49.5779752,116.620927 L42.2705284,104.392855 C41.2423824,102.667091 40.0672518,99.9131822 40.0672518,99.9131822 L39.9941326,99.9131822 C39.9941326,99.9131822 40.2877287,102.740584 40.2877287,104.392855 L40.2877287,116.620927 L33.8618163,116.620927 L33.8618163,90.3655261 Z" id="Fill-19" fill="#001A18"></path>
                <path d="M80.0201616,90.3655261 C86.1890375,90.3655261 89.3104081,93.7073736 89.3104081,93.7073736 L87.9517333,95.5797483 C87.9517333,95.5797483 84.9407877,92.7157872 80.0936539,92.7157872 C74.0344568,92.7157872 69.7017691,97.4159364 69.7017691,103.511693 C69.7017691,109.680569 74.0344568,114.711247 80.1671461,114.711247 C85.3813684,114.711247 88.5392986,111.259721 88.5392986,111.259721 L90.0080253,113.059349 C90.0080253,113.059349 86.4830066,117.061135 80.1305865,117.061135 C72.4926109,117.061135 67.0579118,111.076176 67.0579118,103.548253 C67.0579118,96.0572617 72.6392224,90.3655261 80.0201616,90.3655261" id="Fill-21" fill="#001A18"></path>
                <path d="M112.592431,114.71121 C118.394591,114.71121 123.09474,109.864449 123.09474,103.548215 C123.09474,97.3793395 118.394591,92.7157499 112.592431,92.7157499 C106.754084,92.7157499 102.090494,97.3793395 102.090494,103.548215 C102.090494,109.864449 106.754084,114.71121 112.592431,114.71121 M112.592431,90.3654888 C119.900251,90.3654888 125.738598,96.1307167 125.738598,103.548215 C125.738598,111.112699 119.900251,117.061471 112.592431,117.061471 C105.284984,117.061471 99.4466367,111.112699 99.4466367,103.548215 C99.4466367,96.1307167 105.284984,90.3654888 112.592431,90.3654888" id="Fill-23" fill="#001A18"></path>
                <path d="M137.380113,90.8060322 L139.840426,90.8060322 L153.023152,109.386898 C153.904314,110.672081 155.152936,112.874984 155.152936,112.874984 L155.226056,112.874984 C155.226056,112.874984 155.005952,110.745573 155.005952,109.386898 L155.005952,90.8060322 L157.539757,90.8060322 L157.539757,116.620853 L155.079444,116.620853 L141.896718,98.0403598 C141.015556,96.7548043 139.766933,94.5519008 139.766933,94.5519008 L139.693441,94.5519008 C139.693441,94.5519008 139.913918,96.681312 139.913918,98.0403598 L139.913918,116.620853 L137.380113,116.620853 L137.380113,90.8060322 Z" id="Fill-25" fill="#001A18"></path>
                <polygon id="Fill-27" fill="#001A18" points="170.943632 90.8060322 184.53038 90.8060322 184.53038 93.0831741 173.477438 93.0831741 173.477438 102.777069 182.951228 102.777069 182.951228 105.053837 173.477438 105.053837 173.477438 116.620853 170.943632 116.620853"></polygon>
                <polygon id="Fill-29" fill="#001A18" points="195.731016 90.8060322 210.272044 90.8060322 210.272044 93.0831741 198.264448 93.0831741 198.264448 102.483846 208.06914 102.483846 208.06914 104.760241 198.264448 104.760241 198.264448 114.344084 210.933102 114.344084 210.933102 116.620853 195.731016 116.620853"></polygon>
                <path d="M231.27741,103.474649 C234.398407,103.474649 236.38158,101.454916 236.38158,98.2238667 C236.38158,96.0937094 235.536978,94.5153038 234.031692,93.7072617 C233.259836,93.3032406 232.342488,93.0831368 230.359316,93.0831368 L225.145093,93.0831368 L225.145093,103.474649 L231.27741,103.474649 Z M222.611661,90.8059949 L230.249264,90.8059949 C232.893121,90.8059949 234.067878,91.0637775 235.096024,91.5039851 C237.519778,92.5686907 238.988878,95.0293768 238.988878,98.1503744 C238.988878,101.639206 237.005705,104.31925 234.105184,105.127292 L234.105184,105.200785 C234.105184,105.200785 234.362221,105.531314 234.765496,106.228931 L240.383739,116.620816 L237.483218,116.620816 L231.644498,105.751417 L225.145093,105.751417 L225.145093,116.620816 L222.611661,116.620816 L222.611661,90.8059949 Z" id="Fill-31" fill="#001A18"></path>
                <polygon id="Fill-33" fill="#001A18" points="251.585083 90.8060322 266.126112 90.8060322 266.126112 93.0831741 254.118516 93.0831741 254.118516 102.483846 263.923208 102.483846 263.923208 104.760241 254.118516 104.760241 254.118516 114.344084 266.787169 114.344084 266.787169 116.620853 251.585083 116.620853"></polygon>
                <path d="M278.46558,90.8060322 L280.92552,90.8060322 L294.108246,109.386898 C294.989408,110.672081 296.23803,112.874984 296.23803,112.874984 L296.311523,112.874984 C296.311523,112.874984 296.091419,110.745573 296.091419,109.386898 L296.091419,90.8060322 L298.625224,90.8060322 L298.625224,116.620853 L296.164538,116.620853 L282.981812,98.0403598 C282.10065,96.7548043 280.852027,94.5519008 280.852027,94.5519008 L280.778535,94.5519008 C280.778535,94.5519008 280.999012,96.681312 280.999012,98.0403598 L280.999012,116.620853 L278.46558,116.620853 L278.46558,90.8060322 Z" id="Fill-35" fill="#001A18"></path>
                <path d="M323.264765,90.3655261 C329.434014,90.3655261 332.555385,93.7073736 332.555385,93.7073736 L331.19671,95.5797483 C331.19671,95.5797483 328.185391,92.7157872 323.338257,92.7157872 C317.279433,92.7157872 312.946746,97.4159364 312.946746,103.511693 C312.946746,109.680569 317.279433,114.711247 323.41175,114.711247 C328.625972,114.711247 331.784275,111.259721 331.784275,111.259721 L333.253375,113.059349 C333.253375,113.059349 329.728356,117.061135 323.37519,117.061135 C315.737588,117.061135 310.302515,111.076176 310.302515,103.548253 C310.302515,96.0572617 315.884572,90.3655261 323.264765,90.3655261" id="Fill-37" fill="#001A18"></path>
                <polygon id="Fill-39" fill="#001A18" points="344.674599 90.8060322 359.215628 90.8060322 359.215628 93.0831741 347.208405 93.0831741 347.208405 102.483846 357.012724 102.483846 357.012724 104.760241 347.208405 104.760241 347.208405 114.344084 359.876685 114.344084 359.876685 116.620853 344.674599 116.620853"></polygon>
            </g>
        </g>
    </g>
</svg>